<?xml version="1.0" encoding="UTF-8"?>
<svg xmlns="http://www.w3.org/2000/svg" xmlns:xlink="http://www.w3.org/1999/xlink" width="77px" height="82px" viewBox="0 0 77 81" version="1.1">
<defs>
<filter id="alpha" filterUnits="objectBoundingBox" x="0%" y="0%" width="100%" height="100%">
  <feColorMatrix type="matrix" in="SourceGraphic" values="0 0 0 0 1 0 0 0 0 1 0 0 0 0 1 0 0 0 1 0"/>
</filter>
<mask id="mask0">
  <g filter="url(#alpha)">
<rect x="0" y="0" width="77" height="81" style="fill:rgb(0%,0%,0%);fill-opacity:0.0901961;stroke:none;"/>
  </g>
</mask>
<clipPath id="clip1">
  <rect x="0" y="0" width="77" height="81"/>
</clipPath>
<g id="surface5" clip-path="url(#clip1)">
<path style=" stroke:none;fill-rule:nonzero;fill:rgb(12.156863%,12.156863%,22.352941%);fill-opacity:1;" d="M 4.417969 23.234375 C 4.621094 23.15625 7.105469 22.265625 7.664062 22.390625 C 7.507812 22.714844 5.394531 23.816406 4.511719 23.410156 C 4.367188 23.320312 4.320312 23.273438 4.417969 23.234375 Z M 4.417969 23.234375 "/>
</g>
<mask id="mask1">
  <g filter="url(#alpha)">
<rect x="0" y="0" width="77" height="81" style="fill:rgb(0%,0%,0%);fill-opacity:0.0901961;stroke:none;"/>
  </g>
</mask>
<clipPath id="clip2">
  <rect x="0" y="0" width="77" height="81"/>
</clipPath>
<g id="surface8" clip-path="url(#clip2)">
<path style=" stroke:none;fill-rule:nonzero;fill:rgb(12.156863%,12.156863%,22.352941%);fill-opacity:1;" d="M 3.449219 22.660156 C 3.652344 22.578125 6.136719 21.691406 6.695312 21.8125 C 6.535156 22.136719 5.371094 22.90625 3.546875 22.832031 C 3.394531 22.746094 3.351562 22.695312 3.449219 22.660156 Z M 3.449219 22.660156 "/>
</g>
<mask id="mask2">
  <g filter="url(#alpha)">
<rect x="0" y="0" width="77" height="81" style="fill:rgb(0%,0%,0%);fill-opacity:0.0901961;stroke:none;"/>
  </g>
</mask>
<clipPath id="clip3">
  <rect x="0" y="0" width="77" height="81"/>
</clipPath>
<g id="surface11" clip-path="url(#clip3)">
<path style=" stroke:none;fill-rule:nonzero;fill:rgb(12.156863%,12.156863%,22.352941%);fill-opacity:1;" d="M 2.355469 21.972656 C 2.777344 21.945312 3.195312 21.851562 3.585938 21.691406 L 3.605469 21.6875 C 4.457031 21.371094 5.351562 21.082031 5.628906 21.144531 C 5.472656 21.46875 3.890625 22.160156 2.480469 22.164062 L 2.398438 22.117188 C 2.289062 22.050781 2.265625 22.007812 2.355469 21.972656 Z M 2.355469 21.972656 "/>
</g>
<mask id="mask3">
  <g filter="url(#alpha)">
<rect x="0" y="0" width="77" height="81" style="fill:rgb(0%,0%,0%);fill-opacity:0.231373;stroke:none;"/>
  </g>
</mask>
<clipPath id="clip4">
  <rect x="0" y="0" width="77" height="81"/>
</clipPath>
<g id="surface14" clip-path="url(#clip4)">
<path style=" stroke:none;fill-rule:nonzero;fill:rgb(12.156863%,12.156863%,22.352941%);fill-opacity:1;" d="M 1.265625 21.304688 C 1.46875 21.226562 3.953125 20.335938 4.511719 20.457031 C 4.355469 20.785156 2.566406 20.988281 1.359375 21.480469 C 1.214844 21.390625 1.167969 21.34375 1.265625 21.304688 Z M 1.265625 21.304688 "/>
</g>
<mask id="mask4">
  <g filter="url(#alpha)">
<rect x="0" y="0" width="77" height="81" style="fill:rgb(0%,0%,0%);fill-opacity:0.0901961;stroke:none;"/>
  </g>
</mask>
<clipPath id="clip5">
  <rect x="0" y="0" width="77" height="81"/>
</clipPath>
<g id="surface17" clip-path="url(#clip5)">
<path style=" stroke:none;fill-rule:nonzero;fill:rgb(12.156863%,12.156863%,22.352941%);fill-opacity:1;" d="M 7.574219 18.054688 C 7.59375 18.269531 7.925781 20.871094 8.289062 21.3125 C 8.507812 21.03125 8.539062 18.652344 7.773438 18.0625 C 7.625 17.964844 7.5625 17.949219 7.574219 18.054688 Z M 7.574219 18.054688 "/>
</g>
<mask id="mask5">
  <g filter="url(#alpha)">
<rect x="0" y="0" width="77" height="81" style="fill:rgb(0%,0%,0%);fill-opacity:0.0901961;stroke:none;"/>
  </g>
</mask>
<clipPath id="clip6">
  <rect x="0" y="0" width="77" height="81"/>
</clipPath>
<g id="surface20" clip-path="url(#clip6)">
<path style=" stroke:none;fill-rule:nonzero;fill:rgb(12.156863%,12.156863%,22.352941%);fill-opacity:1;" d="M 6.617188 17.457031 C 6.636719 17.671875 6.96875 20.273438 7.332031 20.714844 C 7.550781 20.433594 7.710938 19.046875 6.816406 17.460938 C 6.671875 17.367188 6.605469 17.351562 6.617188 17.457031 Z M 6.617188 17.457031 "/>
</g>
<mask id="mask6">
  <g filter="url(#alpha)">
<rect x="0" y="0" width="77" height="81" style="fill:rgb(0%,0%,0%);fill-opacity:0.0901961;stroke:none;"/>
  </g>
</mask>
<clipPath id="clip7">
  <rect x="0" y="0" width="77" height="81"/>
</clipPath>
<g id="surface23" clip-path="url(#clip7)">
<path style=" stroke:none;fill-rule:nonzero;fill:rgb(12.156863%,12.156863%,22.352941%);fill-opacity:1;" d="M 5.507812 16.796875 C 5.675781 17.183594 5.78125 17.59375 5.816406 18.015625 C 5.816406 18.015625 5.820312 18.027344 5.820312 18.03125 C 5.925781 18.929688 6.070312 19.851562 6.253906 20.070312 C 6.476562 19.789062 6.375 18.070312 5.738281 16.820312 L 5.660156 16.765625 C 5.546875 16.703125 5.5 16.703125 5.507812 16.796875 Z M 5.507812 16.796875 "/>
</g>
<mask id="mask7">
  <g filter="url(#alpha)">
<rect x="0" y="0" width="77" height="81" style="fill:rgb(0%,0%,0%);fill-opacity:0.231373;stroke:none;"/>
  </g>
</mask>
<clipPath id="clip8">
  <rect x="0" y="0" width="77" height="81"/>
</clipPath>
<g id="surface26" clip-path="url(#clip8)">
<path style=" stroke:none;fill-rule:nonzero;fill:rgb(12.156863%,12.156863%,22.352941%);fill-opacity:1;" d="M 4.414062 16.132812 C 4.433594 16.351562 4.761719 18.953125 5.128906 19.390625 C 5.347656 19.109375 4.71875 17.429688 4.613281 16.140625 C 4.46875 16.042969 4.402344 16.03125 4.414062 16.132812 Z M 4.414062 16.132812 "/>
</g>
<mask id="mask8">
  <g filter="url(#alpha)">
<rect x="0" y="0" width="77" height="81" style="fill:rgb(0%,0%,0%);fill-opacity:0.470588;stroke:none;"/>
  </g>
</mask>
<clipPath id="clip9">
  <rect x="0" y="0" width="77" height="81"/>
</clipPath>
<g id="surface29" clip-path="url(#clip9)">
<path style=" stroke:none;fill-rule:nonzero;fill:rgb(12.156863%,12.156863%,22.352941%);fill-opacity:1;" d="M 3.769531 19.847656 C 3.832031 20.003906 3.933594 20.144531 4.066406 20.25 C 4.839844 20.933594 43.234375 43.992188 43.332031 44.132812 C 43.359375 44.175781 43.492188 44.140625 43.640625 44.054688 C 39.140625 41.1875 7.339844 21.867188 3.769531 19.847656 Z M 3.769531 19.847656 "/>
</g>
<mask id="mask9">
  <g filter="url(#alpha)">
<rect x="0" y="0" width="77" height="81" style="fill:rgb(0%,0%,0%);fill-opacity:0.219608;stroke:none;"/>
  </g>
</mask>
<clipPath id="clip10">
  <rect x="0" y="0" width="77" height="81"/>
</clipPath>
<g id="surface32" clip-path="url(#clip10)">
<path style=" stroke:none;fill-rule:nonzero;fill:rgb(12.156863%,12.156863%,22.352941%);fill-opacity:1;" d="M 41.777344 44.402344 C 41.738281 44.867188 46.617188 45.726562 46.996094 45.464844 C 45.558594 44.347656 44.160156 43.617188 43.335938 43.410156 C 42.984375 44.03125 41.804688 44.074219 41.777344 44.402344 Z M 41.777344 44.402344 "/>
</g>
</defs>
<g id="surface1">
<path style=" stroke:none;fill-rule:nonzero;fill:rgb(18.823529%,21.176471%,27.45098%);fill-opacity:1;" d="M 58.144531 48.230469 C 62.078125 35.496094 61.175781 23.925781 56.132812 22.386719 C 51.089844 20.847656 43.816406 29.925781 39.882812 42.660156 C 35.953125 55.394531 36.851562 66.964844 41.894531 68.503906 C 46.9375 70.039062 54.214844 60.964844 58.144531 48.230469 Z M 58.144531 48.230469 "/>
<path style=" stroke:none;fill-rule:nonzero;fill:rgb(100%,100%,100%);fill-opacity:1;" d="M 56.644531 47.773438 C 60.574219 35.039062 59.96875 23.558594 55.292969 22.132812 C 50.613281 20.703125 43.632812 29.871094 39.703125 42.605469 C 35.769531 55.339844 36.375 66.820312 41.054688 68.246094 C 45.730469 69.671875 52.710938 60.507812 56.644531 47.773438 Z M 56.644531 47.773438 "/>
<path style=" stroke:none;fill-rule:nonzero;fill:rgb(80.392157%,16.862745%,19.215686%);fill-opacity:1;" d="M 55.230469 47.34375 C 58.707031 36.085938 58.171875 25.941406 54.035156 24.679688 C 49.902344 23.417969 43.734375 31.519531 40.257812 42.773438 C 36.785156 54.03125 37.316406 64.175781 41.453125 65.4375 C 45.585938 66.699219 51.757812 58.597656 55.230469 47.34375 Z M 55.230469 47.34375 "/>
<path style=" stroke:none;fill-rule:nonzero;fill:rgb(100%,100%,100%);fill-opacity:1;" d="M 53.472656 46.804688 C 56.300781 37.640625 55.867188 29.382812 52.5 28.355469 C 49.136719 27.328125 44.113281 33.921875 41.285156 43.085938 C 38.457031 52.246094 38.890625 60.507812 42.257812 61.535156 C 45.625 62.5625 50.644531 55.964844 53.472656 46.804688 Z M 53.472656 46.804688 "/>
<path style=" stroke:none;fill-rule:nonzero;fill:rgb(80.392157%,16.862745%,19.215686%);fill-opacity:1;" d="M 52.332031 45.976562 C 54.632812 38.535156 54.285156 31.824219 51.550781 30.992188 C 48.816406 30.15625 44.734375 35.511719 42.433594 42.949219 C 40.132812 50.390625 40.484375 57.101562 43.214844 57.933594 C 45.949219 58.769531 50.03125 53.414062 52.332031 45.976562 Z M 52.332031 45.976562 "/>
<path style=" stroke:none;fill-rule:nonzero;fill:rgb(100%,100%,100%);fill-opacity:1;" d="M 49.9375 45.726562 C 51.476562 40.75 51.238281 36.265625 49.410156 35.707031 C 47.582031 35.148438 44.851562 38.730469 43.316406 43.707031 C 41.78125 48.683594 42.015625 53.171875 43.847656 53.726562 C 45.675781 54.285156 48.402344 50.703125 49.9375 45.726562 Z M 49.9375 45.726562 "/>
<path style=" stroke:none;fill-rule:nonzero;fill:rgb(80.392157%,16.862745%,19.215686%);fill-opacity:1;" d="M 48.753906 44.882812 C 49.53125 42.371094 49.410156 40.109375 48.488281 39.828125 C 47.566406 39.546875 46.1875 41.351562 45.414062 43.863281 C 44.636719 46.371094 44.753906 48.632812 45.679688 48.917969 C 46.601562 49.199219 47.976562 47.390625 48.753906 44.882812 Z M 48.753906 44.882812 "/>
<path style=" stroke:none;fill-rule:nonzero;fill:rgb(72.941176%,70.196078%,70.588235%);fill-opacity:1;" d="M 44.058594 41.34375 C 43.503906 42.046875 41.839844 43.9375 41.875 44.257812 C 41.910156 44.578125 44.066406 43.9375 44.171875 43.390625 C 44.277344 42.839844 44.058594 41.34375 44.058594 41.34375 Z M 44.058594 41.34375 "/>
<path style=" stroke:none;fill-rule:nonzero;fill:rgb(100%,100%,100%);fill-opacity:1;" d="M 4.417969 23.234375 C 4.621094 23.15625 7.105469 22.265625 7.664062 22.390625 C 8.042969 22.496094 8.390625 22.695312 8.675781 22.96875 C 7.066406 23.769531 6.074219 24.261719 5.34375 23.855469 C 4.964844 23.640625 4.675781 23.503906 4.511719 23.410156 C 4.351562 23.316406 4.320312 23.273438 4.417969 23.234375 Z M 4.417969 23.234375 "/>
<use xlink:href="#surface5" mask="url(#mask0)"/>
<path style=" stroke:none;fill-rule:nonzero;fill:rgb(100%,100%,100%);fill-opacity:1;" d="M 3.449219 22.660156 C 3.652344 22.578125 6.136719 21.691406 6.695312 21.8125 C 7.082031 21.921875 7.433594 22.132812 7.71875 22.417969 C 6.113281 23.21875 5.109375 23.699219 4.375 23.28125 C 3.996094 23.0625 3.707031 22.925781 3.546875 22.832031 C 3.382812 22.738281 3.351562 22.695312 3.449219 22.660156 Z M 3.449219 22.660156 "/>
<use xlink:href="#surface8" mask="url(#mask1)"/>
<path style=" stroke:none;fill-rule:nonzero;fill:rgb(100%,100%,100%);fill-opacity:1;" d="M 2.355469 21.972656 C 2.777344 21.945312 3.195312 21.851562 3.585938 21.691406 L 3.605469 21.6875 C 4.433594 21.363281 5.316406 21.066406 5.597656 21.128906 C 6.015625 21.261719 6.390625 21.5 6.695312 21.816406 C 5.089844 22.617188 4.011719 23.015625 3.277344 22.59375 C 2.898438 22.378906 2.609375 22.238281 2.449219 22.144531 L 2.398438 22.117188 C 2.289062 22.050781 2.265625 22.007812 2.355469 21.972656 Z M 2.355469 21.972656 "/>
<use xlink:href="#surface11" mask="url(#mask2)"/>
<path style=" stroke:none;fill-rule:nonzero;fill:rgb(100%,100%,100%);fill-opacity:1;" d="M 1.265625 21.304688 C 1.46875 21.226562 3.953125 20.335938 4.511719 20.457031 C 4.921875 20.589844 5.296875 20.820312 5.597656 21.128906 C 3.992188 21.929688 2.921875 22.34375 2.191406 21.925781 C 1.8125 21.714844 1.523438 21.574219 1.359375 21.480469 C 1.199219 21.386719 1.167969 21.34375 1.265625 21.304688 Z M 1.265625 21.304688 "/>
<use xlink:href="#surface14" mask="url(#mask3)"/>
<path style=" stroke:none;fill-rule:nonzero;fill:rgb(32.941176%,19.607843%,21.568627%);fill-opacity:1;" d="M 3.769531 19.847656 C 3.832031 20.003906 3.933594 20.144531 4.066406 20.25 C 4.839844 20.933594 43.234375 43.992188 43.332031 44.132812 C 43.335938 44.15625 43.382812 44.15625 43.433594 44.144531 C 43.507812 44.125 43.574219 44.09375 43.640625 44.054688 C 43.960938 43.863281 44.355469 43.433594 43.925781 43.054688 C 43.886719 43.019531 43.84375 42.988281 43.800781 42.957031 C 43.800781 42.957031 5.59375 19.238281 4.839844 19.160156 C 4.242188 19.097656 3.621094 19.386719 3.769531 19.847656 Z M 3.769531 19.847656 "/>
<path style=" stroke:none;fill-rule:nonzero;fill:rgb(100%,100%,100%);fill-opacity:1;" d="M 7.574219 18.054688 C 7.59375 18.269531 7.925781 20.871094 8.289062 21.3125 C 8.554688 21.601562 8.890625 21.820312 9.265625 21.945312 C 9.257812 20.167969 9.257812 19.054688 8.554688 18.597656 C 8.1875 18.359375 7.933594 18.164062 7.777344 18.066406 C 7.617188 17.96875 7.5625 17.949219 7.574219 18.054688 Z M 7.574219 18.054688 "/>
<use xlink:href="#surface17" mask="url(#mask4)"/>
<path style=" stroke:none;fill-rule:nonzero;fill:rgb(100%,100%,100%);fill-opacity:1;" d="M 6.617188 17.457031 C 6.636719 17.671875 6.96875 20.273438 7.332031 20.714844 C 7.605469 21.007812 7.953125 21.226562 8.335938 21.347656 C 8.328125 19.566406 8.300781 18.453125 7.59375 17.992188 C 7.230469 17.753906 6.976562 17.5625 6.816406 17.464844 C 6.660156 17.367188 6.605469 17.351562 6.617188 17.457031 Z M 6.617188 17.457031 "/>
<use xlink:href="#surface20" mask="url(#mask5)"/>
<path style=" stroke:none;fill-rule:nonzero;fill:rgb(100%,100%,100%);fill-opacity:1;" d="M 5.507812 16.796875 C 5.675781 17.183594 5.78125 17.59375 5.816406 18.015625 C 5.816406 18.015625 5.820312 18.027344 5.820312 18.03125 C 5.910156 18.914062 6.039062 19.832031 6.222656 20.050781 C 6.535156 20.359375 6.914062 20.585938 7.335938 20.710938 C 7.328125 18.933594 7.195312 17.792969 6.488281 17.332031 C 6.121094 17.089844 5.867188 16.898438 5.714844 16.800781 L 5.664062 16.773438 C 5.546875 16.703125 5.5 16.703125 5.507812 16.796875 Z M 5.507812 16.796875 "/>
<use xlink:href="#surface23" mask="url(#mask6)"/>
<path style=" stroke:none;fill-rule:nonzero;fill:rgb(100%,100%,100%);fill-opacity:1;" d="M 4.414062 16.132812 C 4.433594 16.351562 4.761719 18.953125 5.128906 19.390625 C 5.429688 19.699219 5.804688 19.925781 6.21875 20.054688 C 6.210938 18.273438 6.09375 17.132812 5.390625 16.671875 C 5.027344 16.433594 4.773438 16.238281 4.613281 16.140625 C 4.457031 16.042969 4.402344 16.03125 4.414062 16.132812 Z M 4.414062 16.132812 "/>
<use xlink:href="#surface26" mask="url(#mask7)"/>
<use xlink:href="#surface29" mask="url(#mask8)"/>
<path style=" stroke:none;fill-rule:nonzero;fill:rgb(100%,100%,100%);fill-opacity:1;" d="M 41.777344 44.402344 C 41.738281 44.867188 46.617188 45.726562 46.996094 45.464844 L 47.011719 45.460938 C 47.273438 45.164062 44.304688 41.296875 44.058594 41.351562 C 43.8125 41.410156 43.699219 42.769531 43.347656 43.40625 L 43.335938 43.410156 C 42.984375 44.03125 41.804688 44.074219 41.777344 44.402344 Z M 41.777344 44.402344 "/>
<use xlink:href="#surface32" mask="url(#mask9)"/>
</g>
</svg>
